<svg width="246" height="48" viewBox="0 0 246 48" fill="none" xmlns="http://www.w3.org/2000/svg">
<g clip-path="url(#clip0_79_826)">
<path d="M0 2.41783C0 1.0825 1.07957 0 2.41129 0H41.4698C42.8015 0 43.8811 1.0825 43.8811 2.41783V44H0V2.41783Z" fill="#FFDD00"/>
<path d="M0 44.0007H43.8811V48.0007L38.396 44.0007L32.9108 48.0007L27.4257 44.0007L21.9405 48.0007L16.4554 44.0007L10.9703 48.0007L5.48513 44.0007L0 48.0007V44.0007Z" fill="#FFDD00"/>
<path fill-rule="evenodd" clip-rule="evenodd" d="M19.4425 32.0017L37.2329 13.7813L34.1934 10.6683L19.4426 25.7756L12.3482 18.5098L9.30859 21.6229L19.4425 32.0017Z" fill="#252525"/>
<path d="M232.328 13.3339H237.101L246 37.3339H241.158L238.908 31.3508H230.452L228.236 37.3339H223.395L232.328 13.3339ZM238.055 28.0719L234.714 18.1677L231.237 28.0719H238.055Z" fill="#252525"/>
<path d="M166.217 37.3339L175.405 24.8944L166.888 13.3339H172.253L179.195 23.0015H181.206V13.3339H185.801V23.0015H187.813L194.754 13.3339H200.119L191.602 24.8944L200.79 37.3339H195.492L187.879 27.2268H185.801V37.3339H181.206V27.2268H179.094L171.515 37.3339H166.217Z" fill="#252525"/>
<path d="M144.94 17.424H137.279V37.3339H132.655V17.424H124.994V13.3339H144.94V17.424Z" fill="#252525"/>
<path d="M113.982 13.3339H118.756L127.654 37.3339H122.813L120.562 31.3508H112.107L109.891 37.3339H105.049L113.982 13.3339ZM119.71 28.0719L116.369 18.1677L112.891 28.0719H119.71Z" fill="#252525"/>
<path d="M97.7842 37.1994V17.4011H90.7931L90.6591 21.4347C90.5468 24.5944 90.2894 27.205 89.8857 29.2666C89.4825 31.3283 88.9 32.9529 88.1383 34.1406C87.3761 35.3058 86.4128 36.135 85.2474 36.628C84.1048 37.0986 82.7266 37.3339 81.1133 37.3339V33.3339C81.9425 33.3339 82.6595 33.1546 83.2644 32.7961C83.8697 32.4375 84.3739 31.7877 84.7771 30.8465C85.2027 29.9053 85.5388 28.572 85.7851 26.8465C86.0319 25.121 86.2 22.8913 86.2894 20.1574L86.525 13.3339H102.389V37.1994H97.7842Z" fill="#252525"/>
<path fill-rule="evenodd" clip-rule="evenodd" d="M58.5078 23.1965V37.3339H62.9435V23.1965H58.5078ZM58.5078 17.4227H64.256V17.424H72.6884V37.3339H77.124V13.3339H58.5078V17.4227Z" fill="#252525"/>
<path fill-rule="evenodd" clip-rule="evenodd" d="M203.449 22.9939V37.3339H208.065V27.2269H210.356L217.768 37.3339H223.395L214.029 24.962L222.721 13.3339H217.532L210.424 23.0015H208.065V22.9939H203.449ZM203.449 17.4227H208.065V13.3339H203.449V17.4227Z" fill="#252525"/>
<path fill-rule="evenodd" clip-rule="evenodd" d="M163.556 37.3335V33.2514H152.066V27.0101H161.744V23.2316H152.066V23.2233H147.6V37.3335H163.556ZM147.6 17.4621H153.211V17.4626H163.265V13.3805H147.6V17.4621ZM150.836 6.66687V10.6815H154.429V6.66687H150.836ZM157.051 6.66687V10.6815H160.643V6.66687H157.051Z" fill="#252525"/>
</g>
<defs>
<clipPath id="clip0_79_826">
<rect width="246" height="48" fill="white"/>
</clipPath>
</defs>
</svg>
