<svg width="238" height="46" viewBox="0 0 238 46" fill="none" xmlns="http://www.w3.org/2000/svg">
<path d="M0 2.30793C0 1.0333 1.03329 0 2.30792 0H39.6921C40.9667 0 42 1.03329 42 2.30792V42H0V2.30793Z" fill="#FFDD00"/>
<path d="M0 42H42V46L36.75 42L31.5 46L26.25 42L21 46L15.75 42L10.5 46L5.25 42L0 46V42Z" fill="#FFDD00"/>
<path fill-rule="evenodd" clip-rule="evenodd" d="M18.5361 30.794L36.0391 13.291L33.0487 10.3006L18.5362 24.8131L11.5565 17.8333L8.56596 20.8238L18.5361 30.794Z" fill="#252525"/>
<path d="M225.299 12H229.733L238 35H233.502L231.412 29.2662H223.557L221.498 35H217L225.299 12ZM230.62 26.1239L227.516 16.6324L224.285 26.1239H230.62Z" fill="white"/>
<path d="M161 35L169.77 23.0789L161.64 12H166.761L173.387 21.2648H175.307V12H179.693V21.2648H181.613L188.239 12H193.36L185.23 23.0789L194 35H188.943L181.677 25.3141H179.693V35H175.307V25.3141H173.291L166.057 35H161Z" fill="white"/>
<path d="M140 15.9197H133.086V35H128.914V15.9197H122V12H140V15.9197Z" fill="white"/>
<path d="M110.299 12H114.733L123 35H118.502L116.412 29.2662H108.557L106.498 35H102L110.299 12ZM115.62 26.1239L112.516 16.6324L109.285 26.1239H115.62Z" fill="white"/>
<path d="M94.6714 34.8711V15.8978H88.0995L87.9731 19.7633C87.8678 22.7913 87.6256 25.2932 87.2464 27.2689C86.8673 29.2446 86.3196 30.8016 85.6035 31.9398C84.8873 33.0565 83.9816 33.8511 82.8863 34.3235C81.812 34.7745 80.5166 35 79 35V31.1667C79.7794 31.1667 80.4534 30.9949 81.0221 30.6513C81.5908 30.3077 82.0648 29.6849 82.4439 28.7829C82.8441 27.881 83.1601 26.6032 83.3918 24.9496C83.6235 23.296 83.7815 21.1592 83.8657 18.5392L84.0869 12H99V34.8711H94.6714Z" fill="white"/>
<path fill-rule="evenodd" clip-rule="evenodd" d="M57 21.4517V35H61.527V21.4517H57ZM57 15.9185H62.8667L62.8667 15.9197H71.473V35H76V12H57V15.9185Z" fill="white"/>
<path fill-rule="evenodd" clip-rule="evenodd" d="M197 21.2575V35H201.397V25.3141H203.579L210.64 35H216L207.078 23.1437L215.358 12H210.416L203.644 21.2648H201.397V21.2575H197ZM197 15.9185H201.397V12H197V15.9185Z" fill="white"/>
<path fill-rule="evenodd" clip-rule="evenodd" d="M159 35V31.1397H147.479V25.2376H157.183V21.6645H147.479V21.6566H143V35H159ZM143 16.2085H148.627V16.209H158.708V12.3487H143V16.2085ZM146.245 6V9.79648H149.848V6H146.245ZM152.477 6V9.79648H156.079V6H152.477Z" fill="white"/>
</svg>
